<svg version="1.1" id="Layer_1" xmlns="http://www.w3.org/2000/svg" x="0" y="0" viewBox="0 0 470.9 433.1" xml:space="preserve"><style>.business-st2{fill:#f2f2f2}.business-st6{fill:#6c63ff}.business-st7{fill:#d1a39d}.business-st8{fill:#fff}.business-st9{fill:#3f3d56}.business-st10{fill:#2f2e41}.business-st11{opacity:.1;enable-background:new}.business-st12{opacity:.5}.business-st14{fill:#f5f5f5}.business-st15{fill:#e0e0e0}.business-st17{fill:#fda57d}.business-st18{fill:#333}.business-st22{fill:#4d8af0}.business-st25{fill:#be7c5e}.business-st29{fill:#f1f1f1}</style><g id="Businessman_Illustration" transform="translate(-1362.928 -1186.297)"><path id="Right_Gray_Pebble" d="M1397.1 1444.2s37.8 73.2 94.3 34 120.7-69.5 79.3-151.5-186-135.2-203.8-53.2c-17.8 82 30.2 170.7 30.2 170.7z" fill="#ddd"/><g transform="translate(1362.93 1186.3)"><path id="Right_Yellow_Pebble-2" d="M279.5 404C-29.9 574.8 47.1-66.8 262.8 5.7S589 233.2 279.5 404z" fill="#f9dc5c"/></g><g id="Businessman" transform="translate(1479.5 1396.808)"><ellipse id="Ellipse_22" class="business-st2" cx="51.9" cy="169.3" rx="49" ry="8"/><path id="Rectangle_173" class="business-st2" d="M-23.3-74.7H78c12.6 0 22.8 10.2 22.8 22.8v42.3C100.8 3 90.6 13.2 78 13.2H-23.3C-35.9 13.2-46.1 3-46.1-9.6v-42.3c0-12.5 10.2-22.8 22.8-22.8z"/><path id="Rectangle_174" d="M136.7-74.7H238c12.6 0 22.8 10.2 22.8 22.8v42.3c0 12.6-10.2 22.8-22.8 22.8H136.7c-12.6 0-22.8-10.2-22.8-22.8v-42.3c0-12.5 10.2-22.8 22.8-22.8z" fill="#000122"/><path id="Path_222" d="M-3.1-21.1h-16c-1.1-6.3-1.1-12.8 0-19.1h16c-1.8 6.2-1.8 12.9 0 19.1z" fill="#fe5f55"/><path id="Path_223" d="M12.8-21.5h16c1.1-6.3 1.1-12.8 0-19.1h-16c1.8 6.3 1.8 12.9 0 19.1z" fill="#9ed8db"/><path id="Path_224" class="business-st6" d="M45.7-20.7h16c1.1-6.3 1.1-12.8 0-19.1h-16c1.8 6.3 1.8 12.9 0 19.1z"/><path id="Path_174" class="business-st7" d="M84.1 28.7s.7 5.5-1.1 7.7-4.7 16.8-4.7 16.8V62s11.3-16.4 13.5-23c1.3-3.8 1.3-7.9 0-11.7l-7.7 1.4z"/><path id="Path_175" class="business-st8" d="M83 1.6l.2.2c1.9 2.1 3.4 4.6 4.4 7.2 2.4 6.4 7.6 22.1 5.7 23.7-2.6 2.2-9.9 3.7-10.2 3.3s-7.7-23-7.7-23L83 1.6z"/><path id="Path_176" class="business-st9" d="M71.2 156.9s8.8 1.8 9.1 0c.2-1.1.6-2.2 1.1-3.3 0 0 7.9.3 5.9 7.3-.2.7-.7 1.3-1.3 1.6-1.9 1.2-6.4 3.9-8.6 5.3-1.7 1.1-4.1.3-5.9-.6-1.3-.6-2-2.1-1.7-3.5l1.4-6.8z"/><path id="Path_177" class="business-st9" d="M46 158s-8.8 1.8-9.1 0c-.2-1.1-.6-2.2-1.1-3.3 0 0-7.9.3-5.9 7.3.2.7.7 1.3 1.3 1.7 1.9 1.2 6.3 3.9 8.6 5.3 1.9 1.2 4.6.1 6.4-.8 1-.5 1.5-1.6 1.3-2.7L46 158z"/><path id="Path_178" class="business-st7" d="M35 33.4s-.7 5.5 1.1 7.7 4.7 10.6 4.7 10.6v8.8S29.5 50.3 27.3 43.7c-1.3-3.8-1.3-7.9 0-11.7l7.7 1.4z"/><circle id="Ellipse_24" class="business-st7" cx="60.9" cy="-20.7" r="9"/><path id="Path_179" class="business-st7" d="M67.9-17s-2.6 11.7 0 13.2-15.3 0-15.3 0 4-9.9 2.2-13.2 13.1 0 13.1 0z"/><path id="Path_180" class="business-st10" d="M76.7 60.8s3.3 4.7 2.2 19.4-2.2 30-2.2 30 8 46 5.5 47.1-11 2.2-12.1 1.1-6.2-43.8-6.2-43.8l-4.7-35.1-7.3 40.2s-4 39.1-6.9 40.9c-2.1 1.3-6.2.4-8.4-.3-.8-.2-1.4-1-1.4-1.9.3-6.1 1.5-30.4 4.3-45.3 3.3-17.2-3.3-51.5 2.6-52.2s34.6-.1 34.6-.1z"/><path id="Path_181" class="business-st8" d="M51.1-5.3s1.5-6.6 6.9-5.8 9.1.4 10.2 4S81-.6 81-.6s2.9.4 2.6 5.1-7.7 22.3-7.7 22.3.4 14.6 2.2 21.2 1.8 14.6-2.2 16.4-29.2 8.4-35.1.4c0 0-3.3-11.7-1.1-16.4S39.4 25 39.4 25l-7-15.3s2.2-7.3 8.4-9.5C44.5-1.1 48-3 51.1-5.3z"/><path id="Path_182" class="business-st8" d="M35.4 6.4l-2.9 3.3s-8.8 21.6-6.2 23.7 9.9 3.7 10.2 3.3 6.6-19 6.6-19L35.4 6.4z"/><path id="Path_183" class="business-st10" d="M71.2-26.1c-1 .9-1.7 2.3-1.8 3.7-.4 2.6-2.6-1.5-3.1 3.8S57-9.7 53.7-12.2s-8.8-18.6-1.1-21.2 15.3-2.2 16.8.4 1.8 6.9 1.8 6.9z"/><path id="Path_184" class="business-st11" d="M64-18.7c.5-5.3 2.8-1.3 3.1-3.8.1-1.4.8-2.7 1.8-3.7 0 0-.4-4.4-1.8-6.9-.7-1.2-2.8-1.9-5.7-2.1 3.9-.2 7 .6 7.9 2.1 1.5 2.6 1.8 6.9 1.8 6.9-1 .9-1.7 2.3-1.8 3.7-.4 2.6-2.6-1.5-3.1 3.8-.4 4.5-6.8 7.8-10.7 7.1 3.7-.4 8.2-3.3 8.5-7.1z"/><g id="Resumes" transform="translate(-15 13)"><g id="Group_354" transform="translate(234.511 -4.785)" class="business-st12"><linearGradient id="Rectangle_177_1_" gradientUnits="userSpaceOnUse" x1="-388.778" y1="589.848" x2="-388.778" y2="588.467" gradientTransform="matrix(7.1987 -47.712 -34.5312 -5.21 23027.549 -15540.188)"><stop offset="0" style="business-stop-color:gray" stop-opacity=".251"/><stop offset=".54" style="business-stop-color:gray" stop-opacity=".122"/><stop offset="1" style="business-stop-color:gray" stop-opacity=".102"/></linearGradient><path id="Rectangle_177" fill="url(#Rectangle_177_1_)" d="M-30.6-23.1l7.2-47.7 34.5 5.2-7.2 47.7z"/></g><path id="Rectangle_178" transform="rotate(-81.419 224.76 -49.349)" class="business-st14" d="M201.2-66.4h47.2v34h-47.2z"/><path id="Rectangle_179" transform="rotate(-81.431 224.926 -51.746)" class="business-st15" d="M224.2-64h1.5v24.6h-1.5z"/><path id="Rectangle_180" transform="rotate(-81.431 224.37 -48.065)" class="business-st15" d="M223.6-60.3h1.5v24.6h-1.5z"/><path id="Rectangle_181" transform="rotate(-81.431 232.588 -62.634)" class="business-st15" d="M231.8-69h1.5v12.7h-1.5z"/><path id="Rectangle_182" transform="rotate(-81.431 232.034 -58.953)" class="business-st6" d="M231.3-64.2h1.5v10.4h-1.5z"/><path id="Rectangle_183" transform="rotate(-81.431 222.342 -44.607)" class="business-st15" d="M221.6-55.4h1.5v21.6h-1.5z"/><path id="Rectangle_184" transform="rotate(-81.431 220.314 -41.149)" class="business-st15" d="M219.6-50.4h1.5v18.6h-1.5z"/><path id="Rectangle_185" transform="rotate(-81.431 218.654 -37.635)" class="business-st15" d="M217.9-45.8h1.5v16.4h-1.5z"/><path id="Rectangle_186" transform="rotate(-81.431 220.308 -33.62)" class="business-st15" d="M219.6-44h1.5v20.8h-1.5z"/><path id="Rectangle_187" transform="rotate(-81.431 213.496 -30.884)" class="business-st6" d="M212.7-35h1.5v8.2h-1.5z"/><g id="Group_355" transform="translate(244.824 2.858)" class="business-st12"><linearGradient id="Path_185_1_" gradientUnits="userSpaceOnUse" x1="-390.932" y1="556.607" x2="-390.932" y2="555.61" gradientTransform="matrix(9.9368 0 0 -10.0007 3858.922 5415.387)"><stop offset="0" style="business-stop-color:gray" stop-opacity=".251"/><stop offset=".54" style="business-stop-color:gray" stop-opacity=".122"/><stop offset="1" style="business-stop-color:gray" stop-opacity=".102"/></linearGradient><path id="Path_185" d="M-20.8-65.1c.4-2.7-1.5-5.2-4.2-5.7-2.7-.4-5.2 1.5-5.7 4.2-.2 1.6.3 3.3 1.6 4.4.1.2.3.3.5.4.7.5 1.4.8 2.2.9.7.1 1.5.1 2.2-.2.2-.1.4-.1.5-.2v-.1c1.7-.7 2.7-2.1 2.9-3.7z" fill="url(#Path_185_1_)"/></g><circle id="Ellipse_25" class="business-st14" cx="219.1" cy="-63.2" r="4.8"/><path id="Path_186" class="business-st17" d="M216.9-61.6s-1.1-.1-1.2 2c.1.2.3.3.5.4l1-2.1-.3-.3z"/><path id="Path_187" class="business-st17" d="M220.6-61.1s1.1.3.5 2.3l-.6.3-.3-2.3.4-.3z"/><path id="Path_188" class="business-st18" d="M217.5-65s-.8 1.5-1 1.3c0 0 2.5 2.9 5.4.8-.2-.6-.5-1.1-.9-1.6l-3.5-.5z"/><circle id="Ellipse_26" class="business-st18" cx="219.3" cy="-64.9" r="2.1"/><path id="Path_189" class="business-st11" d="M220.6-61.1l-3.7-.6-.6 1.4s-.3.7-.1 1c1.3.9 2.8 1.1 4.3.7.2-.4.3-.8.2-1.2-.1-.7 0-.1 0-.1l-.1-1.2z"/><path id="Path_190" class="business-st11" d="M220.6-61.1l-3.7-.6-.6 1.4s-.3.7-.1 1c1.3.9 2.8 1.1 4.3.7.2-.4.3-.8.2-1.2-.1-.7 0-.1 0-.1l-.1-1.2z"/><path id="Path_191" d="M220.6-61.1l-3.7-.6-.6 1.4s-.3.7-.1 1c1.3.9 2.8 1.1 4.3.7.2-.4.3-.8.2-1.2-.1-.7 0-.1 0-.1l-.1-1.2z" fill="#fdd835"/><path id="Path_192" class="business-st11" d="M218.2-62.7l1.5.2-.2 1.3c0 .3-.3.5-.7.5h-.3c-.3 0-.5-.3-.5-.7l.2-1.3z"/><path id="Path_193" class="business-st17" d="M218.2-62.7l1.5.2-.2 1.3c0 .3-.4.5-.7.5h-.3c-.3 0-.5-.3-.5-.7l.2-1.3z"/><path id="Path_194" class="business-st11" d="M218.2-62.5c.4.2 1 .3 1.5.2v-.2l-1.5-.2v.2z"/><circle id="Ellipse_27" class="business-st17" cx="219.3" cy="-64.4" r="2.1"/><path id="Path_195" class="business-st18" d="M217.4-65.5l4 .6c0-.9-.7-1.7-1.6-1.8-1-.1-1.9.4-2.4 1.2z"/><ellipse id="Ellipse_28" transform="rotate(-81.419 217.214 -64.813)" class="business-st17" cx="217.2" cy="-64.8" rx=".4" ry=".2"/><ellipse id="Ellipse_29" transform="rotate(-81.419 221.342 -64.19)" class="business-st17" cx="221.3" cy="-64.2" rx=".4" ry=".2"/><path id="Path_196" class="business-st11" d="M217.4-65.5l4 .6c0-.9-.7-1.7-1.6-1.8-1 0-1.9.5-2.4 1.2z"/><g id="Group_356" transform="translate(199.178 2.07)" class="business-st12"><linearGradient id="Rectangle_188_1_" gradientUnits="userSpaceOnUse" x1="-347.912" y1="574.059" x2="-347.912" y2="573.062" gradientTransform="matrix(34.5733 -5.5879 -7.7207 -47.7691 16454.1 25452.643)"><stop offset="0" style="business-stop-color:gray" stop-opacity=".251"/><stop offset=".54" style="business-stop-color:gray" stop-opacity=".122"/><stop offset="1" style="business-stop-color:gray" stop-opacity=".102"/></linearGradient><path id="Rectangle_188" fill="url(#Rectangle_188_1_)" d="M-30.6-65.3l34.5-5.5 7.7 47.7-34.5 5.6z"/></g><path id="Rectangle_189" transform="rotate(-9.32 189.586 -42.428)" class="business-st14" d="M172.6-66.1h34v47.2h-34z"/><path id="Rectangle_190" transform="rotate(-9.32 189.006 -44.753)" class="business-st15" d="M176.7-45.5h24.6v1.5h-24.6z"/><path id="Rectangle_191" transform="rotate(-9.32 189.607 -41.08)" class="business-st15" d="M177.3-41.9h24.6v1.5h-24.6z"/><path id="Rectangle_192" transform="rotate(-9.32 192.957 -57.466)" class="business-st15" d="M186.7-58.3h12.7v1.5h-12.7z"/><path id="Rectangle_193" transform="rotate(-9.32 193.559 -53.793)" class="business-st6" d="M188.4-54.6h10.4v1.5h-10.4z"/><path id="Rectangle_194" transform="rotate(-9.32 188.74 -37.167)" class="business-st15" d="M178-37.9h21.6v1.5H178z"/><path id="Rectangle_195" transform="rotate(-9.32 187.871 -33.256)" class="business-st15" d="M178.6-34h18.6v1.5h-18.6z"/><path id="Rectangle_196" transform="rotate(-9.32 187.372 -29.402)" class="business-st15" d="M179.2-30.2h16.4v1.5h-16.4z"/><path id="Rectangle_197" transform="rotate(-9.32 190.177 -26.091)" class="business-st15" d="M179.8-26.9h20.8v1.5h-20.8z"/><path id="Rectangle_198" transform="rotate(-9.32 184.536 -21.396)" class="business-st6" d="M180.5-22.2h8.2v1.5h-8.2z"/><g id="Group_357" transform="translate(205.93 11.688)" class="business-st12"><linearGradient id="Path_197_1_" gradientUnits="userSpaceOnUse" x1="-352.082" y1="534.055" x2="-352.082" y2="533.055" gradientTransform="matrix(10.2184 0 0 -10.2568 3572.174 5473.56)"><stop offset="0" style="business-stop-color:gray" stop-opacity=".251"/><stop offset=".54" style="business-stop-color:gray" stop-opacity=".122"/><stop offset="1" style="business-stop-color:gray" stop-opacity=".102"/></linearGradient><path id="Path_197" d="M-20.5-66.6c-.5-2.8-3.1-4.7-5.9-4.2-2.8.5-4.7 3.1-4.2 5.9.3 1.7 1.4 3.1 2.9 3.8l.6.3c.8.3 1.6.3 2.5.1.8-.1 1.5-.4 2.1-.9.2-.1.3-.2.4-.4v-.1c1.3-1.1 1.9-2.8 1.6-4.5z" fill="url(#Path_197_1_)"/></g><circle id="Ellipse_30" class="business-st14" cx="180.4" cy="-54.1" r="5"/><path id="Path_198" class="business-st22" d="M178.6-51.8s-1.1.3-.5 2.4l.6.3.3-2.3-.4-.4z"/><path id="Path_199" class="business-st22" d="M182.4-52.4s1.2-.1 1.2 2.1c-.1.2-.3.3-.5.4l-1-2.1.3-.4z"/><circle id="Ellipse_31" class="business-st18" cx="179.9" cy="-55.7" r="2.2"/><path id="Path_200" class="business-st22" d="M182.3-52.4l-3.8.6-.1 1.6s-.1.7.2 1c1.5.5 3.1.2 4.4-.7.1-.4 0-.9-.2-1.3-.3-.7-.1 0-.1 0l-.4-1.2z"/><path id="Path_201" class="business-st22" d="M182.4-52.4l-3.8.6-.1 1.6s-.1.7.2 1c1.5.5 3.1.2 4.4-.7.1-.4 0-.9-.2-1.3-.3-.7-.1 0-.1 0l-.4-1.2z"/><path id="Path_202" class="business-st22" d="M182.4-52.4l-3.8.6-.1 1.6s-.1.7.2 1c1.5.5 3.1.2 4.4-.7.1-.4 0-.9-.2-1.3-.3-.7-.1 0-.1 0l-.4-1.2z"/><path id="Path_203" class="business-st11" d="M179.5-53.2l1.5-.2.2 1.4c.1.3-.2.6-.5.7l-.3.1c-.3.1-.6-.2-.7-.5l-.2-1.5z"/><path id="Path_204" class="business-st17" d="M179.5-53.3l1.5-.2.2 1.4c.1.3-.2.6-.5.7l-.3.1c-.3.1-.6-.2-.7-.5l-.2-1.5z"/><path id="Path_205" class="business-st11" d="M179.6-53.1c.5.1 1.1 0 1.5-.2v-.2l-1.5.2v.2z"/><circle id="Ellipse_32" class="business-st17" cx="180" cy="-55.3" r="2.2"/><path id="Path_206" class="business-st11" d="M177.8-55.7l4.1-.7c-.3-.9-1.2-1.4-2.2-1.2-.9.2-1.6 1-1.9 1.9z"/><path id="Path_207" class="business-st18" d="M177.8-55.8l4.1-.7c-.3-.9-1.2-1.4-2.2-1.2-.9.3-1.6 1-1.9 1.9z"/><ellipse id="Ellipse_33" transform="rotate(-9.177 177.829 -54.885)" class="business-st17" cx="177.9" cy="-54.9" rx=".2" ry=".4"/><ellipse id="Ellipse_34" transform="rotate(-9.32 182.07 -55.671)" class="business-st17" cx="182.1" cy="-55.7" rx=".2" ry=".4"/><g id="Group_358" transform="translate(224.063 9.799)" class="business-st12"><linearGradient id="Rectangle_199_1_" gradientUnits="userSpaceOnUse" x1="-371.323" y1="567.374" x2="-371.323" y2="566.374" gradientTransform="matrix(34.922 0 0 -48.252 12954.152 27296.166)"><stop offset="0" style="business-stop-color:gray" stop-opacity=".251"/><stop offset=".54" style="business-stop-color:gray" stop-opacity=".122"/><stop offset="1" style="business-stop-color:gray" stop-opacity=".102"/></linearGradient><path id="Rectangle_199" fill="url(#Rectangle_199_1_)" d="M-30.6-70.8H4.3v48.3h-34.9z"/></g><path id="Rectangle_200" class="business-st8" d="M193.9-60.7h34v47.2h-34z"/><g id="Group_359" transform="translate(229.053 15.729)" class="business-st12"><linearGradient id="Path_208_1_" gradientUnits="userSpaceOnUse" x1="-375.239" y1="538.307" x2="-375.239" y2="537.307" gradientTransform="matrix(10.444 0 0 -10.4796 3893.561 5558.666)"><stop offset="0" style="business-stop-color:gray" stop-opacity=".251"/><stop offset=".54" style="business-stop-color:gray" stop-opacity=".122"/><stop offset="1" style="business-stop-color:gray" stop-opacity=".102"/></linearGradient><path id="Path_208" d="M-30.6-65.6c0-2.9 2.3-5.2 5.2-5.2s5.2 2.3 5.2 5.2c0 1.7-.9 3.4-2.3 4.3-.2.2-.4.3-.6.4-.8.4-1.6.6-2.5.5-.8 0-1.6-.2-2.3-.5-.2-.1-.3-.2-.5-.3v-.1c-1.4-1-2.2-2.6-2.2-4.3z" fill="url(#Path_208_1_)"/></g><circle id="Ellipse_35" class="business-st14" cx="203.6" cy="-49.9" r="5.1"/><path id="Path_209" class="business-st25" d="M201.6-48s-1.2.1-.9 2.3c.2.2.4.3.6.4l.7-2.3-.4-.4z"/><path id="Path_210" class="business-st25" d="M205.6-48s1.2.1.9 2.3c-.2.2-.4.3-.6.4l-.7-2.3.4-.4z"/><path id="Path_211" class="business-st18" d="M201.7-51.6l-.2.6c-.3.7 0 3.3.7 3.6.9.4 1.9.4 2.8.1.9-.3 1.2-3.3.6-4.1-.1-.1-.2-.2-.2-.3l-3.7.1z"/><circle id="Ellipse_36" class="business-st18" cx="203.6" cy="-51.7" r="2.2"/><path id="Path_212" class="business-st11" d="M205.5-48h-3.9l-.4 1.6s-.2.7.1 1c1.4.7 3.1.7 4.6.1.2-.4.2-.9.1-1.3-.2-.7-.1-.1-.1-.1l-.4-1.3z"/><path id="Path_213" class="business-st11" d="M205.6-48h-3.9l-.4 1.6s-.2.7.1 1c1.4.7 3.1.7 4.6.1.2-.4.2-.9.1-1.3-.2-.7-.1-.1-.1-.1l-.4-1.3z"/><path id="Path_214" d="M205.6-48h-3.9l-.4 1.6s-.2.7.1 1c1.4.7 3.1.7 4.6.1.2-.4.2-.9.1-1.3-.2-.7-.1-.1-.1-.1l-.4-1.3z" fill="#3ad29f"/><path id="Path_215" class="business-st11" d="M202.8-49.3h1.6v1.4c0 .3-.3.6-.6.6h-.4c-.3 0-.6-.3-.6-.6v-1.4z"/><path id="Path_216" class="business-st25" d="M202.8-49.3h1.6v1.4c0 .3-.3.6-.6.6h-.4c-.3 0-.6-.3-.6-.6v-1.4z"/><path id="Path_217" class="business-st11" d="M202.8-49.1c.5.2 1.1.2 1.6 0v-.2h-1.6v.2z"/><circle id="Ellipse_37" class="business-st25" cx="203.6" cy="-51.2" r="2.2"/><path id="Path_218" class="business-st18" d="M201.5-52.1h4.3c-.2-.9-1-1.6-2-1.6-1 .1-1.9.7-2.3 1.6z"/><ellipse id="Ellipse_38" class="business-st25" cx="201.4" cy="-51.3" rx=".2" ry=".4"/><ellipse id="Ellipse_39" class="business-st25" cx="205.8" cy="-51.3" rx=".2" ry=".4"/><path id="Path_219" class="business-st11" d="M201.5-52h4.3c-.2-.9-1-1.6-2-1.6-1 .1-1.9.7-2.3 1.6z"/><path id="Rectangle_201" class="business-st15" d="M198.4-40.2H223v1.5h-24.6z"/><path id="Rectangle_202" class="business-st15" d="M198.4-36.5H223v1.5h-24.6z"/><path id="Rectangle_203" class="business-st15" d="M210.3-52.1H223v1.5h-12.7z"/><path id="Rectangle_204" class="business-st6" d="M211.4-48.4h10.4v1.5h-10.4z"/><path id="Rectangle_205" class="business-st15" d="M198.4-32.8H220v1.5h-21.6z"/><path id="Rectangle_206" class="business-st15" d="M198.4-29.1H217v1.5h-18.6z"/><path id="Rectangle_207" class="business-st15" d="M198.4-25.3h16.4v1.5h-16.4z"/><path id="Rectangle_208" class="business-st15" d="M198.4-21.6h20.8v1.5h-20.8z"/><path id="Rectangle_209" class="business-st6" d="M198.4-17.9h8.2v1.5h-8.2z"/><g id="Group_360" transform="translate(249.191 46.268)" class="business-st12"><linearGradient id="Ellipse_40_1_" gradientUnits="userSpaceOnUse" x1="-395.834" y1="519.054" x2="-395.834" y2="518.054" gradientTransform="matrix(14.878 0 0 -14.878 5866.005 7602.185)"><stop offset="0" style="business-stop-color:gray" stop-opacity=".251"/><stop offset=".54" style="business-stop-color:gray" stop-opacity=".122"/><stop offset="1" style="business-stop-color:gray" stop-opacity=".102"/></linearGradient><circle id="Ellipse_40" cx="-23.2" cy="-63.4" r="7.4" fill="url(#Ellipse_40_1_)"/></g><circle id="Ellipse_41" cx="226" cy="-17.1" r="7" fill="#69f0ae"/><path id="Path_220" class="business-st8" d="M222.9-18.1l2.6 2.4 3.7-5.5 1.3 1.1-5 6.6-3.7-4.2 1.1-.4z"/></g><circle id="Ellipse_42" class="business-st29" cx="111.4" cy="62.6" r="5.7"/><circle id="Ellipse_43" class="business-st29" cx="235" cy="-117.6" r="5.7"/></g></g></svg>