<svg xmlns="http://www.w3.org/2000/svg" viewBox="0 0 360 305"><style>.a{fill:#f1f1f1}.b,.o{fill:#6c63ff}.c{fill:#222}.d{fill:#a1665e}.f{fill:#2f2e41}.g{fill:none;stroke:#333;stroke-miterlimit:10;stroke-width:2px}.h{fill:#3f3d56}.i{fill:#333}.m{fill:#000122}.o{isolation:isolate;opacity:.3}</style><g transform="translate(0 -.032)"><circle class="a" cx="5.712" cy="5.712" r="5.712" transform="translate(283.901 13.441)"/><circle class="a" cx="5.712" cy="5.712" r="5.712" transform="translate(250.223 234.473)"/><circle class="a" cx="5.712" cy="5.712" r="5.712" transform="translate(108.159 68.408)"/><ellipse class="a" cx="61" cy="9" rx="61" ry="9" transform="translate(0 287.032)"/><path class="b" d="M92.879 231.862l15.257-4.78a55.915 55.915 0 00-5.7-18.191l-15.257 4.779a34.3 34.3 0 015.7 18.192z"/><circle class="c" cx="14.245" cy="14.245" r="14.245" transform="translate(41.961 88.859)"/><path class="d" d="M40.839 281.613l-2.71 11.613h6.581l2.71-13.161zM72.581 281.613v10.839l6.581.774v-11.613zM38.903 158.516s.774 16.645 1.548 17.806 7.742 17.805 7.742 17.805l3.484-10.839s-5.419-8.9-4.645-13.935a57.842 57.842 0 00.286-11.225z"/><circle class="d" cx="10.839" cy="10.839" r="10.839" transform="translate(50.129 96.581)"/><path class="d" d="M52.065 108.581s.387 15.484-2.323 17.806 15.484.387 15.484.387-3.871-10.839-.774-13.161-12.387-5.032-12.387-5.032z"/><path d="M66.387 126s-2.323-4.258-5.419-3.871-13.161 1.161-13.548 1.935a23.12 23.12 0 01-2.323 4.258c-.774.774-6.581 1.935-6.968 6.581s13.935 32.9 13.935 32.9-1.935 6.581-1.548 8.129-1.935 6.194-1.548 8.129-5.806 13.548-2.71 28.645v24.387s-10.452 42.194-7.355 45.29 13.548 1.161 15.484 0 10.065-59.613 10.065-59.613l3.871-19.742.387 43.355s-.774 36.387 1.935 37.548 13.161 1.548 13.935-.774c.6-1.812 3.562-50.009 4.835-71.135a78.94 78.94 0 00-1.7-21.746c-1.611-7.308-3.95-15.893-6.615-19.377-5.032-6.581-8.129-27.484-8.129-27.484l6.581-12s-3.871-3.871-6.194-3.871S66.387 126 66.387 126z" fill="#ff0356"/><path class="f" d="M40.452 132.194l-2.042 1.389s-1.442 24.933-.281 26.482 9.235.793 9.843-.571-7.52-27.3-7.52-27.3z"/><path class="d" d="M72.194 155.42s.387 16.258 2.71 20.9 10.839 24 10.839 24-.494 21.3 3.817 16.071 1.6-17.619 1.6-17.619l-7.355-28.645s-3.871-12.774-3.484-16.645-8.127 1.938-8.127 1.938z"/><path class="f" d="M79.161 286.18s.387-.309 1.548.852 4.258 2.71 3.871 6.968-2.71 5.032-2.71 5.032v-1.161h-1.161v1.936S78.774 306 69.87 302.13a20.077 20.077 0 010-5.032c.387-1.935.387-11.226 1.548-10.839s4.258.774 5.032 2.323 3.098 1.004 2.711-2.402zM39.291 286.567s-.387-.309-1.548.852-4.258 2.71-3.871 6.968 2.71 5.032 2.71 5.032v-1.161h1.161v1.936s1.935 6.193 10.839 2.323a20.078 20.078 0 000-5.032c-.387-1.935-.387-11.226-1.548-10.839s-4.258.774-5.032 2.323-3.098 1.004-2.711-2.402zM74.129 130.258l5.419 1.161s0 8.516 1.548 12 4.258 11.613 3.1 12-12 5.806-12.774 2.71-2.713-27.871 2.707-27.871z"/><circle class="c" cx="9.363" cy="9.363" r="9.363" transform="translate(36.294 79.868)"/><path class="c" d="M34.087 97.415a10.62 10.62 0 0016.4-5.576 10.62 10.62 0 11-20.716-4.355 10.615 10.615 0 004.316 9.931z"/><circle class="c" cx="10.446" cy="10.446" r="10.446" transform="translate(41.961 95.032)"/><ellipse class="c" cx="9.259" cy="7.241" rx="9.259" ry="7.241" transform="translate(51.933 94.32)"/><ellipse class="d" cx="1.757" cy="3.109" rx="1.757" ry="3.109" transform="translate(61.905 105.872)"/><path class="g" d="M236.58 54.926l46.893 18.954"/><path class="h" d="M237.772 58.823l.7-.328-1.619-3.457 3.567-1.362-.277-.723-4.344 1.659zM279.908 75.854l-.277-.723 3.566-1.361-1.618-3.458.7-.328 1.972 4.207z"/><circle class="i" cx="4.258" cy="4.258" r="4.258" transform="translate(255.768 60.145)"/><path class="g" d="M233.007 186.329l43.201-26.303"/><path class="h" d="M236.845 187.7l.156-.759-3.74-.765 1.037-3.674-.746-.21-1.262 4.475zM275.663 164.064l-.746-.21 1.037-3.674-3.74-.766.156-.759 4.555.934z"/><circle class="i" cx="4.258" cy="4.258" r="4.258" transform="translate(250.349 168.92)"/><path class="g" d="M178.729 102.985l.015 50.579"/><path class="h" d="M175.563 105.551l.567.528 2.6-2.8 2.6 2.8.567-.528-3.167-3.4zM175.577 151l.567-.528 2.6 2.8 2.6-2.8.567.528-3.165 3.406z"/><circle class="i" cx="4.258" cy="4.258" r="4.258" transform="translate(174.478 124.016)"/><path fill="#002" d="M143 .032h70v87h-70z"/><path d="M173.659 32.568h-15.988a55.933 55.933 0 010-19.063h15.988a34.3 34.3 0 000 19.063z" fill="#fe5f55"/><path d="M182.469 42.237h15.989a55.933 55.933 0 000-19.063h-15.989a34.3 34.3 0 010 19.063z" fill="#9ed8db"/><path class="b" d="M167.373 73.979h15.989a55.931 55.931 0 000-19.063h-15.989a34.3 34.3 0 010 19.063z"/><path class="m" d="M290 83.032h70v88h-70z"/><path class="b" d="M300 102.032h50v2h-50zM300 110.032h50v2h-50zM300 118.032h50v2h-50zM300 126.032h50v2h-50zM300 134.032h50v3h-50zM312 143.032h26v9h-26z"/><path class="m" d="M149 173.032h70v87h-70z"/><path class="b" d="M159.212 221.731h50.323v2.323h-50.323zM159.212 229.86h50.323v2.323h-50.323zM159.212 237.989h50.323v2.323h-50.323zM159.212 246.118h50.323v2.323h-50.323z"/><path d="M174.627 204.17h-15.988a55.935 55.935 0 010-19.063h15.988a34.3 34.3 0 000 19.063z" style="isolation:isolate" fill="#9ed8db"/><path class="o" d="M181.276 186.893h29.419v1.935h-29.419zM181.276 193.86h29.419v1.935h-29.419zM181.276 200.828h29.419v1.935h-29.419zM181.276 207.796h29.419v1.935h-29.419z"/></g></svg>