<svg xmlns="http://www.w3.org/2000/svg" viewBox="0 0 16 16.323"><path class="a" d="M16 8.349a9.6 9.6 0 00-.141-1.658h-7.7v3.143h4.408a3.778 3.778 0 01-1.631 2.48v2.039h2.63A7.971 7.971 0 0016 8.349z"/><path class="a" d="M8.161 16.326a7.813 7.813 0 005.41-1.97l-2.63-2.039a4.95 4.95 0 01-7.359-2.588H.868v2.1a8.162 8.162 0 007.293 4.497z"/><path class="a" d="M3.579 9.726a4.888 4.888 0 010-3.125V4.499H.868a8.168 8.168 0 000 7.329z"/><path class="a" d="M8.161 3.23a4.435 4.435 0 013.131 1.224l2.33-2.33A7.844 7.844 0 008.161 0 8.16 8.16 0 00.868 4.498l2.711 2.1a4.882 4.882 0 014.582-3.371z"/></svg>