<svg xmlns="http://www.w3.org/2000/svg" viewBox="0 0 50 50"><path fill="#999" d="M19.481 7.71h22.744v29.242H19.481z"/><path d="M25 0a25 25 0 1025 25A25 25 0 0025 0zm15.94 36.316c-3.46-1.868-11.362-6.422-13.784-10.282-1.392-2.218-1.574-8.108-.43-10.462 1.286-2.642 9.81-6.664 12.242-4.494 2.56 2.284-2.614 8.748-2.714 11.764-.116 3.456 4.612 9.784 5.672 12.614a.7.7 0 01-.986.86z" fill="#3d1053"/><path d="M26.602 24.238c-2.928 10.229-12.548 13.616-18.244 13.65-.368 0-1.364-.286-1.11-.968 1.194-3.182 6.512-10.3 6.382-14.188-.114-3.394-5.932-10.666-3.054-13.236 2.736-2.442 13.826-1.68 16.534 5.056.955 2.374.764 5.24-.508 9.686z" fill="#f15a24"/></svg>