<svg xmlns="http://www.w3.org/2000/svg" width="12.231" height="15" viewBox="0 0 12.231 15"><g data-name="Payment Protection Icon"><path data-name="Path 171" d="M6.406 14.919a11.546 11.546 0 004.524-4.669 15.186 15.186 0 001.3-6.915.562.562 0 00-.46-.549 9.882 9.882 0 01-2.73-.913A12.126 12.126 0 016.487.144a.555.555 0 00-.735-.008 12.648 12.648 0 01-2.561 1.737 9.851 9.851 0 01-2.714.9.565.565 0 00-.477.562 15.3 15.3 0 001.293 6.915 11.612 11.612 0 004.516 4.661.569.569 0 00.6.008zM6.317 8.78a.551.551 0 01-.784 0L4.072 7.317a.551.551 0 010-.784.558.558 0 01.784.008l1.066 1.067 2.043-2.044a.551.551 0 01.784 0 .558.558 0 010 .784L6.317 8.78z" fill-rule="evenodd"/></g></svg>