<?xml version="1.0" encoding="utf-8"?><!-- Generator: Adobe Illustrator 24.1.3, SVG Export Plug-In . SVG Version: 6.00 Build 0)  -->
<svg version="1.1" id="Layer_1" xmln="http://www.w3.org/2000/svg" xmln:xlink="http://www.w3.org/1999/xlink" x="0px" y="0px" viewBox="0 0 470.9 433.1" style="enable-background:new 0 0 470.9 433.1;" xml:space="preserve">
	<style type="text/css">.business-st0{fill:#DDDDDD;}.business-st1{fill:#F9DC5C;}.business-st2{fill:#F2F2F2;}.business-st3{fill:#000122;}.business-st4{fill:#FE5F55;}.business-st5{fill:#9ED8DB;}.business-st6{fill:#6C63FF;}.business-st7{fill:#D1A39D;}.business-st8{fill:#FFFFFF;}.business-st9{fill:#3F3D56;}.business-st10{fill:#2F2E41;}.business-st11{opacity:0.1;enable-background:new    ;}.business-st12{opacity:0.5;}.business-st13{fill:url(#Rectangle_177_1_);}.business-st14{fill:#F5F5F5;}.business-st15{fill:#E0E0E0;}.business-st16{fill:url(#Path_185_1_);}.business-st17{fill:#FDA57D;}.business-st18{fill:#333333;}.business-st19{fill:#FDD835;}.business-st20{fill:url(#Rectangle_188_1_);}.business-st21{fill:url(#Path_197_1_);}.business-st22{fill:#4D8AF0;}.business-st23{fill:url(#Rectangle_199_1_);}.business-st24{fill:url(#Path_208_1_);}.business-st25{fill:#BE7C5E;}.business-st26{fill:#3AD29F;}.business-st27{fill:url(#Ellipse_40_1_);}.business-st28{fill:#69F0AE;}.business-st29{fill:#F1F1F1;}  </style>
	<g id="Businessman_Illustration" transform="translate(-1362.928 -1186.297)">
		<path id="Right_Gray_Pebble" class="business-st0" d="M1397.1,1444.2c0,0,37.8,73.2,94.3,34s120.7-69.5,79.3-151.5s-186-135.2-203.8-53.2C1349.1,1355.5,1397.1,1444.2,1397.1,1444.2z"/>
		<g transform="matrix(1, 0, 0, 1, 1362.93, 1186.3)">
			<path id="Right_Yellow_Pebble-2" class="business-st1" d="M279.5,404C-29.9,574.8,47.1-66.8,262.8,5.7S589,233.2,279.5,404z"/>
		</g>
		<g id="Businessman" transform="translate(1479.5 1396.808)">
			<ellipse id="Ellipse_22" class="business-st2" cx="51.9" cy="169.3" rx="49" ry="8"/>
			<path id="Rectangle_173" class="business-st2" d="M-23.3-74.7H78c12.6,0,22.8,10.2,22.8,22.8v42.3c0,12.6-10.2,22.8-22.8,22.8H-23.3c-12.6,0-22.8-10.2-22.8-22.8v-42.3C-46.1-64.4-35.9-74.7-23.3-74.7z"/>
			<path id="Rectangle_174" class="business-st3" d="M136.7-74.7H238c12.6,0,22.8,10.2,22.8,22.8v42.3c0,12.6-10.2,22.8-22.8,22.8H136.7c-12.6,0-22.8-10.2-22.8-22.8v-42.3C113.9-64.4,124.1-74.7,136.7-74.7z"/>
			<path id="Path_222" class="business-st4" d="M-3.1-21.1h-16c-1.1-6.3-1.1-12.8,0-19.1h16C-4.9-34-4.9-27.3-3.1-21.1z"/>
			<path id="Path_223" class="business-st5" d="M12.8-21.5h16c1.1-6.3,1.1-12.8,0-19.1h-16C14.6-34.3,14.6-27.7,12.8-21.5z"/>
			<path id="Path_224" class="business-st6" d="M45.7-20.7h16c1.1-6.3,1.1-12.8,0-19.1h-16C47.5-33.5,47.5-26.9,45.7-20.7z"/>
			<path id="Path_174" class="business-st7" d="M84.1,28.7c0,0,0.7,5.5-1.1,7.7s-4.7,16.8-4.7,16.8v8.8c0,0,11.3-16.4,13.5-23c1.3-3.8,1.3-7.9,0-11.7L84.1,28.7z"/>
			<path id="Path_175" class="business-st8" d="M83,1.6l0.2,0.2c1.9,2.1,3.4,4.6,4.4,7.2c2.4,6.4,7.6,22.1,5.7,23.7c-2.6,2.2-9.9,3.7-10.2,3.3s-7.7-23-7.7-23L83,1.6z"/>
			<path id="Path_176" class="business-st9" d="M71.2,156.9c0,0,8.8,1.8,9.1,0c0.2-1.1,0.6-2.2,1.1-3.3c0,0,7.9,0.3,5.9,7.3c-0.2,0.7-0.7,1.3-1.3,1.6c-1.9,1.2-6.4,3.9-8.6,5.3c-1.7,1.1-4.1,0.3-5.9-0.6c-1.3-0.6-2-2.1-1.7-3.5L71.2,156.9z"/>
			<path id="Path_177" class="business-st9" d="M46,158c0,0-8.8,1.8-9.1,0c-0.2-1.1-0.6-2.2-1.1-3.3c0,0-7.9,0.3-5.9,7.3c0.2,0.7,0.7,1.3,1.3,1.7c1.9,1.2,6.3,3.9,8.6,5.3c1.9,1.2,4.6,0.1,6.4-0.8c1-0.5,1.5-1.6,1.3-2.7L46,158z"/>
			<path id="Path_178" class="business-st7" d="M35,33.4c0,0-0.7,5.5,1.1,7.7s4.7,10.6,4.7,10.6v8.8c0,0-11.3-10.2-13.5-16.8c-1.3-3.8-1.3-7.9,0-11.7L35,33.4z"/>
			<circle id="Ellipse_24" class="business-st7" cx="60.9" cy="-20.7" r="9"/>
			<path id="Path_179" class="business-st7" d="M67.9-17c0,0-2.6,11.7,0,13.2s-15.3,0-15.3,0s4-9.9,2.2-13.2S67.9-17,67.9-17z"/>
			<path id="Path_180" class="business-st10" d="M76.7,60.8c0,0,3.3,4.7,2.2,19.4s-2.2,30-2.2,30s8,46,5.5,47.1s-11,2.2-12.1,1.1s-6.2-43.8-6.2-43.8l-4.7-35.1l-7.3,40.2c0,0-4,39.1-6.9,40.9c-2.1,1.3-6.2,0.4-8.4-0.3c-0.8-0.2-1.4-1-1.4-1.9c0.3-6.1,1.5-30.4,4.3-45.3c3.3-17.2-3.3-51.5,2.6-52.2S76.7,60.8,76.7,60.8z"/>
			<path id="Path_181" class="business-st8" d="M51.1-5.3c0,0,1.5-6.6,6.9-5.8s9.1,0.4,10.2,4S81-0.6,81-0.6s2.9,0.4,2.6,5.1s-7.7,22.3-7.7,22.3s0.4,14.6,2.2,21.2s1.8,14.6-2.2,16.4s-29.2,8.4-35.1,0.4c0,0-3.3-11.7-1.1-16.4S39.4,25,39.4,25L32.4,9.7c0,0,2.2-7.3,8.4-9.5C44.5-1.1,48-3,51.1-5.3z"/>
			<path id="Path_182" class="business-st8" d="M35.4,6.4l-2.9,3.3c0,0-8.8,21.6-6.2,23.7s9.9,3.7,10.2,3.3s6.6-19,6.6-19L35.4,6.4z"/>
			<path id="Path_183" class="business-st10" d="M71.2-26.1c-1,0.9-1.7,2.3-1.8,3.7c-0.4,2.6-2.6-1.5-3.1,3.8s-9.3,8.9-12.6,6.4s-8.8-18.6-1.1-21.2s15.3-2.2,16.8,0.4S71.2-26.1,71.2-26.1z"/>
			<path id="Path_184" class="business-st11" d="M64-18.7c0.5-5.3,2.8-1.3,3.1-3.8c0.1-1.4,0.8-2.7,1.8-3.7c0,0-0.4-4.4-1.8-6.9c-0.7-1.2-2.8-1.9-5.7-2.1c3.9-0.2,7,0.6,7.9,2.1c1.5,2.6,1.8,6.9,1.8,6.9c-1,0.9-1.7,2.3-1.8,3.7c-0.4,2.6-2.6-1.5-3.1,3.8c-0.4,4.5-6.8,7.8-10.7,7.1C59.2-12,63.7-14.9,64-18.7z"/>
			<g id="Resumes" transform="translate(-15 13)">
				<g id="Group_354" transform="translate(234.511 -4.785)" class="business-st12">
					<linearGradient id="Rectangle_177_1_" gradientUnits="userSpaceOnUse" x1="-388.7782" y1="589.8481" x2="-388.7782" y2="588.4672" gradientTransform="matrix(7.1987 -47.712 -34.5312 -5.21 23027.5488 -15540.1875)">
						<stop offset="0" style="business-stop-color:#808080;stop-opacity:0.251"/>
						<stop offset="0.54" style="business-stop-color:#808080;stop-opacity:0.122"/>
						<stop offset="1" style="business-stop-color:#808080;stop-opacity:0.102"/>
					</linearGradient>
					<polygon id="Rectangle_177" class="business-st13" points="-30.6,-23.1 -23.4,-70.8 11.1,-65.6 3.9,-17.9 "/>
				</g>
				<rect id="Rectangle_178" x="201.2" y="-66.4" transform="matrix(0.1492 -0.9888 0.9888 0.1492 240.0213 180.2563)" class="business-st14" width="47.2" height="34"/>
				<rect id="Rectangle_179" x="224.2" y="-64" transform="matrix(0.149 -0.9888 0.9888 0.149 242.57 178.3734)" class="business-st15" width="1.5" height="24.6"/>
				<rect id="Rectangle_180" x="223.6" y="-60.3" transform="matrix(0.149 -0.9888 0.9888 0.149 238.4579 180.9554)" class="business-st15" width="1.5" height="24.6"/>
				<rect id="Rectangle_181" x="231.8" y="-69" transform="matrix(0.149 -0.9888 0.9888 0.149 259.856 176.6841)" class="business-st15" width="1.5" height="12.7"/>
				<rect id="Rectangle_182" x="231.3" y="-64.2" transform="matrix(0.149 -0.9888 0.9888 0.149 255.7447 179.2684)" class="business-st6" width="1.5" height="10.4"/>
				<rect id="Rectangle_183" x="221.6" y="-55.4" transform="matrix(0.149 -0.9888 0.9888 0.149 233.3123 181.8929)" class="business-st15" width="1.5" height="21.6"/>
				<rect id="Rectangle_184" x="219.6" y="-50.4" transform="matrix(0.149 -0.9888 0.9888 0.149 228.1672 182.8309)" class="business-st15" width="1.5" height="18.6"/>
				<rect id="Rectangle_185" x="217.9" y="-45.8" transform="matrix(0.149 -0.9888 0.9888 0.149 223.2799 184.1794)" class="business-st15" width="1.5" height="16.4"/>
				<rect id="Rectangle_186" x="219.6" y="-44" transform="matrix(0.149 -0.9888 0.9888 0.149 220.7181 189.2301)" class="business-st15" width="1.5" height="20.8"/>
				<rect id="Rectangle_187" x="212.7" y="-35" transform="matrix(0.149 -0.9888 0.9888 0.149 212.2157 184.8234)" class="business-st6" width="1.5" height="8.2"/>
				<g id="Group_355" transform="translate(244.824 2.858)" class="business-st12">
					<linearGradient id="Path_185_1_" gradientUnits="userSpaceOnUse" x1="-390.9319" y1="556.6071" x2="-390.9319" y2="555.6101" gradientTransform="matrix(9.9368 0 0 -10.0007 3858.9216 5415.3872)">
						<stop offset="0" style="business-stop-color:#808080;stop-opacity:0.251"/>
						<stop offset="0.54" style="business-stop-color:#808080;stop-opacity:0.122"/>
						<stop offset="1" style="business-stop-color:#808080;stop-opacity:0.102"/>
					</linearGradient>
					<path id="Path_185" class="business-st16" d="M-20.8-65.1c0.4-2.7-1.5-5.2-4.2-5.7c-2.7-0.4-5.2,1.5-5.7,4.2c-0.2,1.6,0.3,3.3,1.6,4.4v0c0.1,0.2,0.3,0.3,0.5,0.4l0,0c0.7,0.5,1.4,0.8,2.2,0.9h0c0.7,0.1,1.5,0.1,2.2-0.2l0,0c0.2-0.1,0.4-0.1,0.5-0.2l0-0.1C-22-62.1-21-63.5-20.8-65.1z"/>
				</g>
				<circle id="Ellipse_25" class="business-st14" cx="219.1" cy="-63.2" r="4.8"/>
				<path id="Path_186" class="business-st17" d="M216.9-61.6c0,0-1.1-0.1-1.2,2c0.1,0.2,0.3,0.3,0.5,0.4l1-2.1L216.9-61.6z"/>
				<path id="Path_187" class="business-st17" d="M220.6-61.1c0,0,1.1,0.3,0.5,2.3c-0.2,0.1-0.4,0.2-0.6,0.3l-0.3-2.3L220.6-61.1z"/>
				<path id="Path_188" class="business-st18" d="M217.5-65c0,0-0.8,1.5-1,1.3c0,0,2.5,2.9,5.4,0.8c-0.2-0.6-0.5-1.1-0.9-1.6L217.5-65z"/>
				<circle id="Ellipse_26" class="business-st18" cx="219.3" cy="-64.9" r="2.1"/>
				<path id="Path_189" class="business-st11" d="M220.6-61.1l-3.7-0.6l-0.6,1.4c0,0-0.3,0.7-0.1,1c1.3,0.9,2.8,1.1,4.3,0.7c0.2-0.4,0.3-0.8,0.2-1.2c-0.1-0.7,0-0.1,0-0.1L220.6-61.1z"/>
				<path id="Path_190" class="business-st11" d="M220.6-61.1l-3.7-0.6l-0.6,1.4c0,0-0.3,0.7-0.1,1c1.3,0.9,2.8,1.1,4.3,0.7c0.2-0.4,0.3-0.8,0.2-1.2c-0.1-0.7,0-0.1,0-0.1L220.6-61.1z"/>
				<path id="Path_191" class="business-st19" d="M220.6-61.1l-3.7-0.6l-0.6,1.4c0,0-0.3,0.7-0.1,1c1.3,0.9,2.8,1.1,4.3,0.7c0.2-0.4,0.3-0.8,0.2-1.2c-0.1-0.7,0-0.1,0-0.1L220.6-61.1z"/>
				<path id="Path_192" class="business-st11" d="M218.2-62.7l1.5,0.2l0,0l-0.2,1.3c0,0.3-0.3,0.5-0.7,0.5c0,0,0,0,0,0l-0.3,0c-0.3,0-0.5-0.3-0.5-0.7c0,0,0,0,0,0L218.2-62.7L218.2-62.7z"/>
				<path id="Path_193" class="business-st17" d="M218.2-62.7l1.5,0.2l0,0l-0.2,1.3c0,0.3-0.4,0.5-0.7,0.5l-0.3,0c-0.3,0-0.5-0.3-0.5-0.7c0,0,0,0,0,0L218.2-62.7L218.2-62.7z"/>
				<path id="Path_194" class="business-st11" d="M218.2-62.5c0.4,0.2,1,0.3,1.5,0.2l0-0.2l-1.5-0.2L218.2-62.5z"/>
				<circle id="Ellipse_27" class="business-st17" cx="219.3" cy="-64.4" r="2.1"/>
				<path id="Path_195" class="business-st18" d="M217.4-65.5l4,0.6c0-0.9-0.7-1.7-1.6-1.8C218.8-66.8,217.9-66.3,217.4-65.5z"/>
				<ellipse id="Ellipse_28" transform="matrix(0.1492 -0.9888 0.9888 0.1492 248.8936 159.6384)" class="business-st17" cx="217.2" cy="-64.8" rx="0.4" ry="0.2"/>
				<ellipse id="Ellipse_29" transform="matrix(0.1492 -0.9888 0.9888 0.1492 251.7879 164.2501)" class="business-st17" cx="221.3" cy="-64.2" rx="0.4" ry="0.2"/>
				<path id="Path_196" class="business-st11" d="M217.4-65.5l4,0.6c0-0.9-0.7-1.7-1.6-1.8C218.8-66.7,217.9-66.2,217.4-65.5z"/>
				<g id="Group_356" transform="translate(199.178 2.07)" class="business-st12">
					<linearGradient id="Rectangle_188_1_" gradientUnits="userSpaceOnUse" x1="-347.912" y1="574.0589" x2="-347.912" y2="573.0619" gradientTransform="matrix(34.5733 -5.5879 -7.7207 -47.7691 16454.0996 25452.6426)">
						<stop offset="0" style="business-stop-color:#808080;stop-opacity:0.251"/>
						<stop offset="0.54" style="business-stop-color:#808080;stop-opacity:0.122"/>
						<stop offset="1" style="business-stop-color:#808080;stop-opacity:0.102"/>
					</linearGradient>
					<polygon id="Rectangle_188" class="business-st20" points="-30.6,-65.3 3.9,-70.8 11.6,-23.1 -22.9,-17.5 "/>
				</g>
				<rect id="Rectangle_189" x="172.6" y="-66.1" transform="matrix(0.9868 -0.1618 0.1618 0.9868 9.3674 30.1149)" class="business-st14" width="34" height="47.2"/>
				<rect id="Rectangle_190" x="176.7" y="-45.5" transform="matrix(0.9868 -0.1618 0.1618 0.9868 9.7359 29.9905)" class="business-st15" width="24.6" height="1.5"/>
				<rect id="Rectangle_191" x="177.3" y="-41.9" transform="matrix(0.9868 -0.1618 0.1618 0.9868 9.1496 30.1361)" class="business-st15" width="24.6" height="1.5"/>
				<rect id="Rectangle_192" x="186.7" y="-58.3" transform="matrix(0.9868 -0.1618 0.1618 0.9868 11.8451 30.4619)" class="business-st15" width="12.7" height="1.5"/>
				<rect id="Rectangle_193" x="188.4" y="-54.6" transform="matrix(0.9868 -0.1618 0.1618 0.9868 11.2587 30.6077)" class="business-st6" width="10.4" height="1.5"/>
				<rect id="Rectangle_194" x="178" y="-37.9" transform="matrix(0.9868 -0.1618 0.1618 0.9868 8.505 30.0476)" class="business-st15" width="21.6" height="1.5"/>
				<rect id="Rectangle_195" x="178.6" y="-34" transform="matrix(0.9868 -0.1618 0.1618 0.9868 7.8607 29.9586)" class="business-st15" width="18.6" height="1.5"/>
				<rect id="Rectangle_196" x="179.2" y="-30.2" transform="matrix(0.9868 -0.1618 0.1618 0.9868 7.2306 29.9287)" class="business-st15" width="16.4" height="1.5"/>
				<rect id="Rectangle_197" x="179.8" y="-26.9" transform="matrix(0.9868 -0.1618 0.1618 0.9868 6.7319 30.4262)" class="business-st15" width="20.8" height="1.5"/>
				<rect id="Rectangle_198" x="180.5" y="-22.2" transform="matrix(0.9868 -0.1618 0.1618 0.9868 5.8978 29.5755)" class="business-st6" width="8.2" height="1.5"/>
				<g id="Group_357" transform="translate(205.93 11.688)" class="business-st12">
					<linearGradient id="Path_197_1_" gradientUnits="userSpaceOnUse" x1="-352.0822" y1="534.0551" x2="-352.0822" y2="533.0551" gradientTransform="matrix(10.2184 0 0 -10.2568 3572.1738 5473.5605)">
						<stop offset="0" style="business-stop-color:#808080;stop-opacity:0.251"/>
						<stop offset="0.54" style="business-stop-color:#808080;stop-opacity:0.122"/>
						<stop offset="1" style="business-stop-color:#808080;stop-opacity:0.102"/>
					</linearGradient>
					<path id="Path_197" class="business-st21" d="M-20.5-66.6c-0.5-2.8-3.1-4.7-5.9-4.2c-2.8,0.5-4.7,3.1-4.2,5.9c0.3,1.7,1.4,3.1,2.9,3.8l0,0c0.2,0.1,0.4,0.2,0.6,0.3v0c0.8,0.3,1.6,0.3,2.5,0.1h0c0.8-0.1,1.5-0.4,2.1-0.9c0,0,0,0,0,0c0.2-0.1,0.3-0.2,0.4-0.4v-0.1C-20.8-63.2-20.2-64.9-20.5-66.6z"/>
				</g>
				<circle id="Ellipse_30" class="business-st14" cx="180.4" cy="-54.1" r="5"/>
				<path id="Path_198" class="business-st22" d="M178.6-51.8c0,0-1.1,0.3-0.5,2.4c0.2,0.1,0.4,0.2,0.6,0.3l0.3-2.3L178.6-51.8z"/>
				<path id="Path_199" class="business-st22" d="M182.4-52.4c0,0,1.2-0.1,1.2,2.1c-0.1,0.2-0.3,0.3-0.5,0.4l-1-2.1L182.4-52.4z"/>
				<circle id="Ellipse_31" class="business-st18" cx="179.9" cy="-55.7" r="2.2"/>
				<path id="Path_200" class="business-st22" d="M182.3-52.4l-3.8,0.6l-0.1,1.6c0,0-0.1,0.7,0.2,1c1.5,0.5,3.1,0.2,4.4-0.7c0.1-0.4,0-0.9-0.2-1.3c-0.3-0.7-0.1,0-0.1,0L182.3-52.4z"/>
				<path id="Path_201" class="business-st22" d="M182.4-52.4l-3.8,0.6l-0.1,1.6c0,0-0.1,0.7,0.2,1c1.5,0.5,3.1,0.2,4.4-0.7c0.1-0.4,0-0.9-0.2-1.3c-0.3-0.7-0.1,0-0.1,0L182.4-52.4z"/>
				<path id="Path_202" class="business-st22" d="M182.4-52.4l-3.8,0.6l-0.1,1.6c0,0-0.1,0.7,0.2,1c1.5,0.5,3.1,0.2,4.4-0.7c0.1-0.4,0-0.9-0.2-1.3c-0.3-0.7-0.1,0-0.1,0L182.4-52.4z"/>
				<path id="Path_203" class="business-st11" d="M179.5-53.2l1.5-0.2l0,0l0.2,1.4c0.1,0.3-0.2,0.6-0.5,0.7l0,0l-0.3,0.1c-0.3,0.1-0.6-0.2-0.7-0.5l0,0L179.5-53.2L179.5-53.2z"/>
				<path id="Path_204" class="business-st17" d="M179.5-53.3l1.5-0.2l0,0l0.2,1.4c0.1,0.3-0.2,0.6-0.5,0.7c0,0,0,0,0,0l0,0l-0.3,0.1c-0.3,0.1-0.6-0.2-0.7-0.5l0,0L179.5-53.3L179.5-53.3z"/>
				<path id="Path_205" class="business-st11" d="M179.6-53.1c0.5,0.1,1.1,0,1.5-0.2l0-0.2l-1.5,0.2L179.6-53.1z"/>
				<circle id="Ellipse_32" class="business-st17" cx="180" cy="-55.3" r="2.2"/>
				<path id="Path_206" class="business-st11" d="M177.8-55.7l4.1-0.7c-0.3-0.9-1.2-1.4-2.2-1.2C178.8-57.4,178.1-56.6,177.8-55.7z"/>
				<path id="Path_207" class="business-st18" d="M177.8-55.8l4.1-0.7c-0.3-0.9-1.2-1.4-2.2-1.2C178.8-57.4,178.1-56.7,177.8-55.8z"/>
				<ellipse id="Ellipse_33" transform="matrix(0.9872 -0.1596 0.1596 0.9872 11.0359 27.6789)" class="business-st17" cx="177.9" cy="-54.9" rx="0.2" ry="0.4"/>
				<ellipse id="Ellipse_34" transform="matrix(0.9868 -0.1618 0.1618 0.9868 11.4109 28.724)" class="business-st17" cx="182.1" cy="-55.7" rx="0.2" ry="0.4"/>
				<g id="Group_358" transform="translate(224.063 9.799)" class="business-st12">
					<linearGradient id="Rectangle_199_1_" gradientUnits="userSpaceOnUse" x1="-371.3229" y1="567.3735" x2="-371.3229" y2="566.3735" gradientTransform="matrix(34.922 0 0 -48.252 12954.1523 27296.166)">
						<stop offset="0" style="business-stop-color:#808080;stop-opacity:0.251"/>
						<stop offset="0.54" style="business-stop-color:#808080;stop-opacity:0.122"/>
						<stop offset="1" style="business-stop-color:#808080;stop-opacity:0.102"/>
					</linearGradient>
					<rect id="Rectangle_199" x="-30.6" y="-70.8" class="business-st23" width="34.9" height="48.3"/>
				</g>
				<rect id="Rectangle_200" x="193.9" y="-60.7" class="business-st8" width="34" height="47.2"/>
				<g id="Group_359" transform="translate(229.053 15.729)" class="business-st12">
					<linearGradient id="Path_208_1_" gradientUnits="userSpaceOnUse" x1="-375.239" y1="538.3066" x2="-375.239" y2="537.3066" gradientTransform="matrix(10.444 0 0 -10.4796 3893.561 5558.666)">
						<stop offset="0" style="business-stop-color:#808080;stop-opacity:0.251"/>
						<stop offset="0.54" style="business-stop-color:#808080;stop-opacity:0.122"/>
						<stop offset="1" style="business-stop-color:#808080;stop-opacity:0.102"/>
					</linearGradient>
					<path id="Path_208" class="business-st24" d="M-30.6-65.6c0-2.9,2.3-5.2,5.2-5.2s5.2,2.3,5.2,5.2c0,1.7-0.9,3.4-2.3,4.3v0c-0.2,0.2-0.4,0.3-0.6,0.4l0,0c-0.8,0.4-1.6,0.6-2.5,0.5h0c-0.8,0-1.6-0.2-2.3-0.5l0,0c-0.2-0.1-0.3-0.2-0.5-0.3l0-0.1C-29.8-62.3-30.6-63.9-30.6-65.6z"/>
				</g>
				<circle id="Ellipse_35" class="business-st14" cx="203.6" cy="-49.9" r="5.1"/>
				<path id="Path_209" class="business-st25" d="M201.6-48c0,0-1.2,0.1-0.9,2.3c0.2,0.2,0.4,0.3,0.6,0.4l0.7-2.3L201.6-48z"/>
				<path id="Path_210" class="business-st25" d="M205.6-48c0,0,1.2,0.1,0.9,2.3c-0.2,0.2-0.4,0.3-0.6,0.4l-0.7-2.3L205.6-48z"/>
				<path id="Path_211" class="business-st18" d="M201.7-51.6c0,0-0.1,0.3-0.2,0.6c-0.3,0.7,0,3.3,0.7,3.6c0.9,0.4,1.9,0.4,2.8,0.1c0.9-0.3,1.2-3.3,0.6-4.1c-0.1-0.1-0.2-0.2-0.2-0.3L201.7-51.6z"/>
				<circle id="Ellipse_36" class="business-st18" cx="203.6" cy="-51.7" r="2.2"/>
				<path id="Path_212" class="business-st11" d="M205.5-48h-3.9l-0.4,1.6c0,0-0.2,0.7,0.1,1c1.4,0.7,3.1,0.7,4.6,0.1c0.2-0.4,0.2-0.9,0.1-1.3c-0.2-0.7-0.1-0.1-0.1-0.1L205.5-48z"/>
				<path id="Path_213" class="business-st11" d="M205.6-48h-3.9l-0.4,1.6c0,0-0.2,0.7,0.1,1c1.4,0.7,3.1,0.7,4.6,0.1c0.2-0.4,0.2-0.9,0.1-1.3c-0.2-0.7-0.1-0.1-0.1-0.1L205.6-48z"/>
				<path id="Path_214" class="business-st26" d="M205.6-48h-3.9l-0.4,1.6c0,0-0.2,0.7,0.1,1c1.4,0.7,3.1,0.7,4.6,0.1c0.2-0.4,0.2-0.9,0.1-1.3c-0.2-0.7-0.1-0.1-0.1-0.1L205.6-48z"/>
				<path id="Path_215" class="business-st11" d="M202.8-49.3h1.6v1.4c0,0.3-0.3,0.6-0.6,0.6l0,0h-0.4c-0.3,0-0.6-0.3-0.6-0.6l0,0l0,0L202.8-49.3L202.8-49.3L202.8-49.3z"/>
				<path id="Path_216" class="business-st25" d="M202.8-49.3h1.6v1.4c0,0.3-0.3,0.6-0.6,0.6l0,0h-0.4c-0.3,0-0.6-0.3-0.6-0.6l0,0l0,0L202.8-49.3L202.8-49.3L202.8-49.3z"/>
				<path id="Path_217" class="business-st11" d="M202.8-49.1c0.5,0.2,1.1,0.2,1.6,0v-0.2h-1.6V-49.1z"/>
				<circle id="Ellipse_37" class="business-st25" cx="203.6" cy="-51.2" r="2.2"/>
				<path id="Path_218" class="business-st18" d="M201.5-52.1h4.3c-0.2-0.9-1-1.6-2-1.6C202.8-53.6,201.9-53,201.5-52.1z"/>
				<ellipse id="Ellipse_38" class="business-st25" cx="201.4" cy="-51.3" rx="0.2" ry="0.4"/>
				<ellipse id="Ellipse_39" class="business-st25" cx="205.8" cy="-51.3" rx="0.2" ry="0.4"/>
				<path id="Path_219" class="business-st11" d="M201.5-52h4.3c-0.2-0.9-1-1.6-2-1.6C202.8-53.5,201.9-52.9,201.5-52z"/>
				<rect id="Rectangle_201" x="198.4" y="-40.2" class="business-st15" width="24.6" height="1.5"/>
				<rect id="Rectangle_202" x="198.4" y="-36.5" class="business-st15" width="24.6" height="1.5"/>
				<rect id="Rectangle_203" x="210.3" y="-52.1" class="business-st15" width="12.7" height="1.5"/>
				<rect id="Rectangle_204" x="211.4" y="-48.4" class="business-st6" width="10.4" height="1.5"/>
				<rect id="Rectangle_205" x="198.4" y="-32.8" class="business-st15" width="21.6" height="1.5"/>
				<rect id="Rectangle_206" x="198.4" y="-29.1" class="business-st15" width="18.6" height="1.5"/>
				<rect id="Rectangle_207" x="198.4" y="-25.3" class="business-st15" width="16.4" height="1.5"/>
				<rect id="Rectangle_208" x="198.4" y="-21.6" class="business-st15" width="20.8" height="1.5"/>
				<rect id="Rectangle_209" x="198.4" y="-17.9" class="business-st6" width="8.2" height="1.5"/>
				<g id="Group_360" transform="translate(249.191 46.268)" class="business-st12">
					<linearGradient id="Ellipse_40_1_" gradientUnits="userSpaceOnUse" x1="-395.8336" y1="519.0541" x2="-395.8336" y2="518.0541" gradientTransform="matrix(14.878 0 0 -14.878 5866.0054 7602.1846)">
						<stop offset="0" style="business-stop-color:#808080;stop-opacity:0.251"/>
						<stop offset="0.54" style="business-stop-color:#808080;stop-opacity:0.122"/>
						<stop offset="1" style="business-stop-color:#808080;stop-opacity:0.102"/>
					</linearGradient>
					<circle id="Ellipse_40" class="business-st27" cx="-23.2" cy="-63.4" r="7.4"/>
				</g>
				<circle id="Ellipse_41" class="business-st28" cx="226" cy="-17.1" r="7"/>
				<path id="Path_220" class="business-st8" d="M222.9-18.1l2.6,2.4l3.7-5.5l1.3,1.1l-5,6.6l-3.7-4.2L222.9-18.1z"/>
			</g>
			<circle id="Ellipse_42" class="business-st29" cx="111.4" cy="62.6" r="5.7"/>
			<circle id="Ellipse_43" class="business-st29" cx="235" cy="-117.6" r="5.7"/>
		</g>
	</g>
</svg>
