<svg id="Layer_1" 
data-name="Layer 1" xmlns="http://www.w3.org/2000/svg" viewBox="0 0 32 32"><defs>
<style>.cls-1{fill:#24a047;}</style></defs>
<path class="cls-1" d="M27.4,22.3l-4.07-2.95C21.87,18.29,21,22.26,19.24,21a35.11,35.11,0,0,1-4.46-3.8A35.11,35.11,0,0,1,11,12.76C9.74,11,13.71,10.13,12.65,8.67L9.7,4.6c-.46-.63-1-.76-2-.41A8.19,8.19,0,0,0,4.68,6c-2.13,2.13.91,8.63,6.78,14.51S23.84,29.45,26,27.32a8.19,8.19,0,0,0,1.84-3C28.16,23.32,28,22.76,27.4,22.3Z"/>
<path class="cls-1" d="M26.18,4.31,20.29,10.2V6.13a1.07,1.07,0,0,0-2.14,0v6.65a1.07,1.07,0,0,0,1.07,1.07h6.65a1.07,1.07,0,0,0,0-2.14H21.8l5.89-5.89a1.07,1.07,0,1,0-1.51-1.51Z"/></svg>