<svg xmln="http://www.w3.org/2000/svg" width="15" height="15" viewBox="0 0 15 15">
	<path id="Dedicated_Designer_icon" data-name="Dedicated Designer icon" d="M17.423,5.211H12.762a3.918,3.918,0,0,0-3.584-3.2,4.068,4.068,0,0,0-4.21,2.452,3.608,3.608,0,0,0,1.54,4.387A5.363,5.363,0,0,0,3,13.781v2.678a.557.557,0,0,0,.577.536H13.962a.557.557,0,0,0,.577-.536V13.781h1.731a.537.537,0,1,0,0-1.071h-.577V11.638h1.731A.557.557,0,0,0,18,11.1V5.747A.557.557,0,0,0,17.423,5.211ZM5.885,5.747A2.761,2.761,0,0,1,8.479,3.079,2.864,2.864,0,0,1,11.6,5.211H10.5a.557.557,0,0,0-.577.536V8.2a3.026,3.026,0,0,1-1.154.225A2.787,2.787,0,0,1,5.885,5.747Zm7.5,10.176H4.154V13.781A4.184,4.184,0,0,1,5.944,10.4a4.9,4.9,0,0,1,3.979-.76V11.1a.557.557,0,0,0,.577.536h1.731v1.071h-.577a.537.537,0,1,0,0,1.071h1.731Zm1.154-3.214H13.385V11.638h1.154Zm2.308-2.142H11.077V6.282h5.769Z" transform="translate(-3 -1.994)"/>
</svg>
