<?xml version="1.0" encoding="utf-8"?><!-- Generator: Adobe Illustrator 24.1.3, SVG Export Plug-In . SVG Version: 6.00 Build 0)  -->
<svg version="1.1" id="Layer_1"
  xmlns="http://www.w3.org/2000/svg"
  xmlns:xlink="http://www.w3.org/1999/xlink" x="0px" y="0px" viewBox="0 0 536.4 445.2" style="enable-background:new 0 0 536.4 445.2;" xml:space="preserve">
  <style type="text/css">.designer-st0{fill:#DDDDDD;}.designer-st1{fill:#F9DC5C;}.designer-st2{fill:#F1F1F1;}.designer-st3{fill:#6C63FF;}.designer-st4{fill:#222222;}.designer-st5{fill:#A1665E;}.designer-st6{fill:#FF0356;}.designer-st7{fill:#2F2E41;}.designer-st8{fill:none;stroke:#333333;stroke-width:2;stroke-miterlimit:10;}.designer-st9{fill:#3F3D56;}.designer-st10{fill:#333333;}.designer-st11{fill:#000022;}.designer-st12{fill:#FE5F55;}.designer-st13{fill:#9ED8DB;}.designer-st14{fill:#000122;}.designer-st15{opacity:0.3;fill:#6C63FF;enable-background:new    ;}</style>
  <g id="Designer_Illustration" transform="translate(23 -1137.515)">
    <path id="Left_Gray_Pebble" class="designer-st0" d="M298,1211.2c0,0-73.1,37.8-34,94.3s69.5,120.7,151.5,79.3s135.2-186,53.2-203.8C386.6,1163.2,298,1211.2,298,1211.2z"/>
    <g transform="matrix(1, 0, 0, 1, -23, 1137.51)">
      <path id="Left_Yellow_Pebble-2" class="designer-st1" d="M180.2,44.2c300.1-186.8,256.7,458,37.6,396.8S-119.9,231,180.2,44.2z"/>
    </g>
    <g id="Designer" transform="translate(223.432 1166.968)">
      <circle id="Ellipse_4" class="designer-st2" cx="219.6" cy="-10.3" r="5.7"/>
      <circle id="Ellipse_5" class="designer-st2" cx="185.9" cy="210.7" r="5.7"/>
      <circle id="Ellipse_6" class="designer-st2" cx="43.9" cy="44.6" r="5.7"/>
      <ellipse id="Ellipse_7" class="designer-st2" cx="-9" cy="266.5" rx="61" ry="9"/>
      <path id="Path_124" class="designer-st3" d="M22.9,202.4l15.3-4.8c-0.8-6.3-2.8-12.5-5.7-18.2l-15.3,4.8C20.7,189.6,22.7,195.9,22.9,202.4z"/>
      <circle id="Ellipse_8" class="designer-st4" cx="-13.8" cy="73.6" r="14.2"/>
      <path id="Path_125" class="designer-st5" d="M-29.2,252.1l-2.7,11.6h6.6l2.7-13.2L-29.2,252.1z"/>
      <path id="Path_126" class="designer-st5" d="M2.6,252.1V263l6.6,0.8v-11.6H2.6z"/>
      <path id="Path_127" class="designer-st5" d="M-31.1,129c0,0,0.8,16.6,1.5,17.8s7.7,17.8,7.7,17.8l3.5-10.8c0,0-5.4-8.9-4.6-13.9c0.5-3.7,0.6-7.5,0.3-11.2L-31.1,129z"/>
      <circle id="Ellipse_9" class="designer-st5" cx="-9.1" cy="77.9" r="10.8"/>
      <path id="Path_128" class="designer-st5" d="M-18,79.1c0,0,0.4,15.5-2.3,17.8s15.5,0.4,15.5,0.4s-3.9-10.8-0.8-13.2S-18,79.1-18,79.1z"/>
      <path id="Path_129" class="designer-st6" d="M-3.6,96.5c0,0-2.3-4.3-5.4-3.9s-13.2,1.2-13.5,1.9c-0.6,1.5-1.4,2.9-2.3,4.3c-0.8,0.8-6.6,1.9-7,6.6S-18,138.3-18,138.3s-1.9,6.6-1.5,8.1s-1.9,6.2-1.5,8.1s-5.8,13.5-2.7,28.6v24.4c0,0-10.5,42.2-7.4,45.3s13.5,1.2,15.5,0s10.1-59.6,10.1-59.6l3.9-19.7l0.4,43.4c0,0-0.8,36.4,1.9,37.5s13.2,1.5,13.9-0.8c0.6-1.8,3.6-50,4.8-71.1c0.4-7.3-0.1-14.6-1.7-21.7c-1.6-7.3-3.9-15.9-6.6-19.4C6,134.8,3,113.9,3,113.9l6.6-12c0,0-3.9-3.9-6.2-3.9S-3.6,96.5-3.6,96.5z" />
      <path id="Path_130" class="designer-st7" d="M-29.6,102.7l-2,1.4c0,0-1.4,24.9-0.3,26.5s9.2,0.8,9.8-0.6S-29.6,102.7-29.6,102.7z"/>
      <path id="Path_131" class="designer-st5" d="M2.2,125.9c0,0,0.4,16.3,2.7,20.9s10.8,24,10.8,24s-0.5,21.3,3.8,16.1s1.6-17.6,1.6-17.6l-7.4-28.6c0,0-3.9-12.8-3.5-16.6S2.2,125.9,2.2,125.9z"/>
      <path id="Path_132" class="designer-st7" d="M9.1,256.7c0,0,0.4-0.3,1.5,0.9s4.3,2.7,3.9,7s-2.7,5-2.7,5v-1.2h-1.2v1.9c0,0-1.9,6.2-10.8,2.3c-0.2-1.7-0.2-3.4,0-5c0.4-1.9,0.4-11.2,1.5-10.8s4.3,0.8,5,2.3S9.5,260.1,9.1,256.7z"/>
      <path id="Path_133" class="designer-st7" d="M-30.7,257.1c0,0-0.4-0.3-1.5,0.9s-4.3,2.7-3.9,7s2.7,5,2.7,5v-1.2h1.2v1.9c0,0,1.9,6.2,10.8,2.3c0.2-1.7,0.2-3.4,0-5c-0.4-1.9-0.4-11.2-1.5-10.8s-4.3,0.8-5,2.3S-31.1,260.5-30.7,257.1z"/>
      <path id="Path_134" class="designer-st7" d="M4.1,100.8l5.4,1.2c0,0,0,8.5,1.5,12s4.3,11.6,3.1,12s-12,5.8-12.8,2.7S-1.3,100.8,4.1,100.8z" />
      <circle id="Ellipse_10" class="designer-st4" cx="-24.4" cy="59.7" r="9.4"/>
      <path id="Path_135" class="designer-st4" d="M-35.9,67.9c4.8,3.4,11.4,2.4,14.8-2.4c0.7-1,1.2-2,1.6-3.2c-0.7,5.8-6,9.9-11.9,9.2s-9.9-6-9.2-11.9c0.1-0.6,0.2-1.1,0.4-1.7C-40.7,61.8-39.1,65.7-35.9,67.9z"/>
      <circle id="Ellipse_11" class="designer-st4" cx="-17.6" cy="76" r="10.4"/>
      <ellipse id="Ellipse_12" class="designer-st4" cx="-8.8" cy="72.1" rx="9.3" ry="7.2"/>
      <ellipse id="Ellipse_13" class="designer-st5" cx="-6.4" cy="79.5" rx="1.8" ry="3.1"/>
      <line id="Line_12" class="designer-st8" x1="166.6" y1="25.4" x2="213.5" y2="44.4"/>
      <path id="Path_136" class="designer-st9" d="M167.8,29.3l0.7-0.3l-1.6-3.5l3.6-1.4l-0.3-0.7l-4.3,1.7L167.8,29.3z"/>
      <path id="Path_137" class="designer-st9" d="M209.9,46.4l-0.3-0.7l3.6-1.4l-1.6-3.5l0.7-0.3l2,4.2L209.9,46.4z"/>
      <circle id="Ellipse_14" class="designer-st10" cx="190" cy="34.9" r="4.3"/>
      <line id="Line_13" class="designer-st8" x1="163" y1="156.8" x2="206.2" y2="130.5"/>
      <path id="Path_138" class="designer-st9" d="M166.8,158.2l0.2-0.8l-3.7-0.8l1-3.7l-0.7-0.2l-1.3,4.5L166.8,158.2z"/>
      <path id="Path_139" class="designer-st9" d="M205.6,134.6l-0.7-0.2l1-3.7l-3.7-0.8l0.2-0.8l4.6,0.9L205.6,134.6z"/>
      <circle id="Ellipse_15" class="designer-st10" cx="184.6" cy="143.7" r="4.3"/>
      <line id="Line_14" class="designer-st8" x1="108.7" y1="73.5" x2="108.7" y2="124.1"/>
      <path id="Path_140" class="designer-st9" d="M105.5,76.1l0.6,0.5l2.6-2.8l2.6,2.8l0.6-0.5l-3.2-3.4L105.5,76.1z"/>
      <path id="Path_141" class="designer-st9" d="M105.6,121.5l0.6-0.5l2.6,2.8l2.6-2.8l0.6,0.5l-3.2,3.4L105.6,121.5z"/>
      <circle id="Ellipse_16" class="designer-st10" cx="108.7" cy="98.8" r="4.3"/>
      <rect id="Rectangle_152" x="73" y="-29.5" class="designer-st11" width="70" height="87"/>
      <path id="Path_142" class="designer-st12" d="M103.6,3.1h-16c-1.1-6.3-1.1-12.8,0-19.1h16C101.8-9.8,101.8-3.1,103.6,3.1z"/>
      <path id="Path_143" class="designer-st13" d="M112.4,12.8h16c1.1-6.3,1.1-12.8,0-19.1h-16C114.3-0.1,114.3,6.5,112.4,12.8z"/>
      <path id="Path_144" class="designer-st3" d="M97.4,44.5h16c1.1-6.3,1.1-12.8,0-19.1h-16C99.2,31.7,99.2,38.3,97.4,44.5z"/>
      <rect id="Rectangle_153" x="220" y="53.5" class="designer-st14" width="70" height="88"/>
      <rect id="Rectangle_154" x="230" y="72.5" class="designer-st3" width="50" height="2"/>
      <rect id="Rectangle_155" x="230" y="80.5" class="designer-st3" width="50" height="2"/>
      <rect id="Rectangle_156" x="230" y="88.5" class="designer-st3" width="50" height="2"/>
      <rect id="Rectangle_157" x="230" y="96.5" class="designer-st3" width="50" height="2"/>
      <rect id="Rectangle_158" x="230" y="104.5" class="designer-st3" width="50" height="3"/>
      <rect id="Rectangle_159" x="242" y="113.5" class="designer-st3" width="26" height="9"/>
      <rect id="Rectangle_160" x="79" y="143.5" class="designer-st14" width="70" height="87"/>
      <rect id="Rectangle_161" x="89.2" y="192.2" class="designer-st3" width="50.3" height="2.3"/>
      <rect id="Rectangle_162" x="89.2" y="200.4" class="designer-st3" width="50.3" height="2.3"/>
      <rect id="Rectangle_163" x="89.2" y="208.5" class="designer-st3" width="50.3" height="2.3"/>
      <rect id="Rectangle_164" x="89.2" y="216.6" class="designer-st3" width="50.3" height="2.3"/>
      <path id="Path_145" class="designer-st13" d="M104.6,174.7h-16c-1.1-6.3-1.1-12.8,0-19.1h16C102.8,161.8,102.8,168.5,104.6,174.7z"/>
      <rect id="Rectangle_165" x="111.3" y="157.4" class="designer-st15" width="29.4" height="1.9"/>
      <rect id="Rectangle_166" x="111.3" y="164.4" class="designer-st15" width="29.4" height="1.9"/>
      <rect id="Rectangle_167" x="111.3" y="171.3" class="designer-st15" width="29.4" height="1.9"/>
      <rect id="Rectangle_168" x="111.3" y="178.3" class="designer-st15" width="29.4" height="1.9"/>
    </g>
  </g>
</svg>
