<svg xmlns="http://www.w3.org/2000/svg" width="32" height="32" viewBox="0 0 32 32"><defs><style>.a{fill:#fff;}.b{fill:none;}</style></defs><circle class="a" cx="1.44" cy="1.44" r="1.44" transform="translate(20.966 8.154)"/><path class="a" d="M16,9.838A6.162,6.162,0,1,0,22.162,16,6.162,6.162,0,0,0,16,9.838ZM16,20a4,4,0,1,1,4-4A4,4,0,0,1,16,20Z"/><path class="a" d="M16,6.162c3.2,0,3.584.012,4.849.07a6.642,6.642,0,0,1,2.228.413,3.975,3.975,0,0,1,2.277,2.277,6.642,6.642,0,0,1,.413,2.228c.058,1.265.07,1.645.07,4.849s-.012,3.584-.07,4.849a6.642,6.642,0,0,1-.413,2.228,3.975,3.975,0,0,1-2.277,2.277,6.642,6.642,0,0,1-2.228.413c-1.265.058-1.645.07-4.849.07s-3.584-.012-4.849-.07a6.642,6.642,0,0,1-2.228-.413,3.975,3.975,0,0,1-2.277-2.277,6.642,6.642,0,0,1-.413-2.228c-.058-1.265-.07-1.645-.07-4.849s.012-3.584.07-4.849a6.642,6.642,0,0,1,.413-2.228A3.975,3.975,0,0,1,8.923,6.645a6.642,6.642,0,0,1,2.228-.413c1.265-.058,1.645-.07,4.849-.07M16,4c-3.259,0-3.668.014-4.948.072A8.807,8.807,0,0,0,8.14,4.63,6.136,6.136,0,0,0,4.63,8.14a8.807,8.807,0,0,0-.558,2.913C4.014,12.332,4,12.741,4,16s.014,3.668.072,4.948a8.807,8.807,0,0,0,.558,2.913,6.136,6.136,0,0,0,3.51,3.51,8.807,8.807,0,0,0,2.913.558C12.332,27.986,12.741,28,16,28s3.668-.014,4.948-.072a8.807,8.807,0,0,0,2.913-.558,6.136,6.136,0,0,0,3.51-3.51,8.807,8.807,0,0,0,.558-2.913C27.986,19.668,28,19.259,28,16s-.014-3.668-.072-4.948A8.807,8.807,0,0,0,27.37,8.14a6.136,6.136,0,0,0-3.51-3.51,8.807,8.807,0,0,0-2.913-.558C19.668,4.014,19.259,4,16,4Z"/><rect class="b" width="32" height="32"/></svg>