<svg xmlns="http://www.w3.org/2000/svg" viewBox="0 0 50 50">
  <defs>
    <style>.a{fill:#999;}.b{fill:#3d1053;}.c{fill:#f15a24;}</style>
  </defs>
  <rect class="a" width="22.744" height="29.242" transform="translate(19.481 7.71)"/>
  <path class="b" d="M978.43,676.645a25,25,0,1,0,25,25A25,25,0,0,0,978.43,676.645Zm15.94,36.316c-3.46-1.868-11.362-6.422-13.784-10.282-1.392-2.218-1.574-8.108-.43-10.462,1.286-2.642,9.81-6.664,12.242-4.494,2.56,2.284-2.614,8.748-2.714,11.764-.116,3.456,4.612,9.784,5.672,12.614A.7.7,0,0,1,994.37,712.961Z" transform="translate(-953.43 -676.645)"/>
  <path class="c" d="M976.428,696.771C973.5,707,963.88,710.387,958.184,710.421c-.368,0-1.364-.286-1.11-.968,1.194-3.182,6.512-10.3,6.382-14.188-.114-3.394-5.932-10.666-3.054-13.236,2.736-2.442,13.826-1.68,16.534,5.056C977.891,689.459,977.7,692.325,976.428,696.771Z" transform="translate(-949.826 -672.533)"/>
</svg>
