<svg xmln="http://www.w3.org/2000/svg" width="12.231" height="15" viewBox="0 0 12.231 15">
	<defs>
		<style>.Payment_Protection_Icon-cls-1 {fill-rule: evenodd;}</style>
	</defs>
	<g id="Payment_Protection_Icon" data-name="Payment Protection Icon" transform="translate(-13 0)">
		<path id="Path_171" data-name="Path 171" class="Payment_Protection_Icon-cls-1" d="M6.406,14.919A11.546,11.546,0,0,0,10.93,10.25a15.186,15.186,0,0,0,1.3-6.915.562.562,0,0,0-.46-.549A9.882,9.882,0,0,1,9.04,1.873,12.126,12.126,0,0,1,6.487.144.555.555,0,0,0,5.752.136,12.648,12.648,0,0,1,3.191,1.873a9.851,9.851,0,0,1-2.714.9A.565.565,0,0,0,0,3.335,15.3,15.3,0,0,0,1.293,10.25a11.612,11.612,0,0,0,4.516,4.661.569.569,0,0,0,.6.008ZM6.317,8.78a.551.551,0,0,1-.784,0L4.072,7.317a.551.551,0,0,1,0-.784.558.558,0,0,1,.784.008L5.922,7.608,7.965,5.564a.551.551,0,0,1,.784,0,.558.558,0,0,1,0,.784L6.317,8.78Z" transform="translate(13 0)"/>
	</g>
</svg>
