<svg xmlns="http://www.w3.org/2000/svg"
	xmlns:xlink="http://www.w3.org/1999/xlink" version="1.1" x="0px" y="0px" viewBox="0 0 100 100" enable-background="new 0 0 100 100" xml:space="preserve">
	<path d="M60.286,27.476c-3.705,0-7.2,0.904-10.286,2.496c-3.087-1.592-6.582-2.496-10.287-2.496  c-12.42,0-22.523,10.104-22.523,22.523c0,12.42,10.104,22.524,22.523,22.524c3.705,0,7.2-0.904,10.287-2.496  c3.086,1.592,6.581,2.496,10.286,2.496c12.42,0,22.524-10.104,22.524-22.524C82.811,37.58,72.706,27.476,60.286,27.476z   M39.713,69.523c-10.766,0-19.523-8.758-19.523-19.524c0-10.766,8.758-19.523,19.523-19.523c2.551,0,4.983,0.506,7.219,1.399  c-5.557,4.105-9.169,10.7-9.169,18.124c0,7.424,3.612,14.018,9.169,18.125C44.696,69.018,42.265,69.523,39.713,69.523z M50,33.437  c5.534,3.449,9.237,9.574,9.237,16.563c0,6.989-3.703,13.114-9.237,16.563c-5.535-3.449-9.237-9.574-9.237-16.563  C40.763,43.011,44.465,36.886,50,33.437z M60.286,69.523c-2.551,0-4.982-0.506-7.219-1.398c5.558-4.107,9.17-10.701,9.17-18.125  c0-7.424-3.612-14.019-9.17-18.124c2.236-0.894,4.668-1.399,7.219-1.399c10.766,0,19.524,8.758,19.524,19.523  C79.811,60.766,71.052,69.523,60.286,69.523z"/>
</svg>
